/* XPM */
static char * char_r_xpm[] = {
"64 64 2 1",
" 	c None",
".	c #FFFFFF",
"                                                                ",
"                                                                ",
"                                                                ",
"                                                                ",
"                     ..                                         ",
"                     ..                                         ",
"                     ..                                         ",
"                     ..                                         ",
"                     ..                                         ",
"           .....     .. .....      ......      .. ....          ",
"          .......    .........    ........     .......          ",
"         ...    .    ...    ..    .     ...    ...              ",
"        ...          ..     ..           ..    ..               ",
"        ..           ..      ..    ........    ..               ",
"        ..           ..      ..   .........    ..               ",
"        ..           ..      ..  ...     ..    ..               ",
"        ...          ..      ..  ..      ..    ..               ",
"         ...    .    ..      ..  ...    ...    ..               ",
"          .......    ..      ..   .........    ..               ",
"           .....     ..      ..    ....  ..    ..               ",
"                                                                ",
"                                                                ",
"                                                                ",
"                                                                ",
"                                                                ",
"                                                                ",
"                                                                ",
"                                                                ",
"                                                                ",
"                                                                ",
"                              ........                          ",
"                              .........                         ",
"                              ..     ...                        ",
"                              ..      ..                        ",
"                              ..      ..                        ",
"                              ..      ..                        ",
"                              ..     ..                         ",
"                              .........                         ",
"                              ........                          ",
"                              ..    ...                         ",
"                              ..     ...                        ",
"                              ..      ..                        ",
"                              ..      ...                       ",
"                              ..       ..                       ",
"                              ..       ...                      ",
"                                                                ",
"                                                                ",
"                                                                ",
"                                                                ",
"                                                                ",
"                                                                ",
"                                                                ",
"                                                                ",
"                                                                ",
"                                                                ",
"                                                                ",
"                                                                ",
"                                                                ",
"                                                                ",
"                                                                ",
"                                                                ",
"                                                                ",
"                                                                ",
"                                                                "};
