/* XPM */
static char * co_3_xpm[] = {
"64 64 2 1",
" 	c None",
".	c #FFFFFF",
"                                                                ",
"                                                                ",
"                                                                ",
"                                                                ",
"                                                                ",
"                                                                ",
"                                                                ",
"                                                                ",
"                                                                ",
"                  .....       .....                             ",
"                 .......     .......                            ",
"                ...    .    ...   ...                           ",
"               ...         ...     ..                           ",
"               ..          ..       ..                          ",
"               ..          ..       ..                          ",
"               ..          ..       ..                          ",
"               ...         ...     ..                           ",
"                ...    .    ...   ...                           ",
"                 .......     .......                            ",
"                  .....       .....                             ",
"                                                                ",
"                                                                ",
"                                                                ",
"                                                                ",
"                                                                ",
"                                                                ",
"                                                                ",
"                                                                ",
"                                                                ",
"                                                                ",
"                         .....                                  ",
"                       ........                                 ",
"                       .     ...                                ",
"                              ..                                ",
"                              ..                                ",
"                             ...                                ",
"                         ......                                 ",
"                         ......                                 ",
"                             ...                                ",
"                              ..                                ",
"                               ..                               ",
"                              ...                               ",
"                       .     ...                                ",
"                       ........                                 ",
"                        ......                                  ",
"                                                                ",
"                                                                ",
"                                                                ",
"                                                                ",
"                                                                ",
"                                                                ",
"                                                                ",
"                                                                ",
"                                                                ",
"                                                                ",
"                                                                ",
"                                                                ",
"                                                                ",
"                                                                ",
"                                                                ",
"                                                                ",
"                                                                ",
"                                                                ",
"                                                                "};
