/* XPM */
static char * wall_pyl_xpm[] = {
"64 64 2 1",
" 	c None",
".	c #FFFFFF",
"                                                                ",
"                                                                ",
"                                                                ",
"                                                                ",
"                                                                ",
"                                      .    .                    ",
"                                      .    .                    ",
"                                      .    .                    ",
"                                      .    .                    ",
"             .    ..    .   .....     .    .                    ",
"             ..   ..   ..        .    .    .                    ",
"             ..  ....  ..        ..   .    .                    ",
"              .  . ..  .     ......   .    .                    ",
"              .  .  . ..   ..    ..   .    .                    ",
"              .. .  . ..   ..    ..   .    .                    ",
"              ....  ...    ..    ..   .    .                    ",
"               ..    ..    ..   ...   .    .                    ",
"               ..    ..     .... ..   .    .                    ",
"                                                                ",
"                                                                ",
"                                                                ",
"                                                                ",
"                                                                ",
"                                                                ",
"                                                                ",
"                                                                ",
"                                      .                         ",
"                                      .                         ",
"                                      .                         ",
"                                      .                         ",
"                 . ....    .      .   .                         ",
"                 ..   ..   ..    ..   .                         ",
"                 ..    ..   .    ..   .                         ",
"                 .     ..   ..  ..    .                         ",
"                 .     ..   ..  ..    .                         ",
"                 .     ..    .  .     .                         ",
"                 ..    ..    ....     .                         ",
"                 ..   ..      ...     .                         ",
"                 . ....       ..      .                         ",
"                 .            ..                                ",
"                 .            .                                 ",
"                 .           ..                                 ",
"                 .         ...                                  ",
"                                                                ",
"                                                                ",
"                                                                ",
"                                                                ",
"                                                                ",
"                                                                ",
"                                                                ",
"                                                                ",
"                                                                ",
"                                                                ",
"                                                                ",
"                                                                ",
"                                                                ",
"                                                                ",
"                                                                ",
"                                                                ",
"                                                                ",
"                                                                ",
"                                                                ",
"                                                                ",
"                                                                "};
