/* XPM */
static char * char_d_2_xpm[] = {
"64 64 15 1",
" 	c None",
".	c #2D2831",
"+	c #5E5067",
"@	c #695376",
"#	c #49167C",
"$	c #9D8FD6",
"%	c #513F5C",
"&	c #C4BAEE",
"*	c #574960",
"=	c #FFFFFF",
"-	c #09B891",
";	c #17876E",
">	c #DAB0EA",
",	c #8D7BDB",
"'	c #6652BA",
"..++.........................@@..@@.........................@+..",
".++.........................########.........................@+.",
"++.......................###$$$$$$$$###.......................@+",
"@....%%%%%%%%%%%%%%%%%%##$$$$$&&&&&$$$$##%%%%%%%%%%%%%%%%%%....@",
"....%*****************#$$$$$$$$&&&&&&&$$$#*****************%....",
"...%*%***++++++++++++#$$&&$$$$$&&&&&&&&$$$#++++++++++++***%*%...",
"...%**%**+++++++++++#$$&&&$$$$&&&&&&&&&&$$$#+++++++++++**%**%...",
"...%***%+++++++++++#$$&&&&$$$$$$$$$$$&&&&$$$#+++++++++++%***%...",
"...%***+%+++++++++#$$$&&&$$$$$$$$$$$$$$&&&$$$#+++++++++%+***%...",
"...%*@+++%++++++++#$$&&$$$$$$$$$$$$$$$$$$&&$$#++++++++%++++*%...",
"...%*@++++%++++++#$$$&$$$$$$$$$$$$$$$$$$$$&$$$#++++++%+++++*%...",
"...%*@+++++%*++++#$$$$$$$$$$$$$$$$$$$$$$$$$$$$#++++*%++++++*%...",
"...%*@+++++*%****#$$$$$$$$$$$$$$$$$$$$$$$$$$$$#****%*++++++*%...",
"...%*@++++++*%*%#$$$$$$$####$$$$$$$$####$$$$$$$#%*%*@++++++*%...",
"...%*@++++++**%+#$$$$$###===#$$$$$$#===###$$$$$#+%**@++++++*%...",
"...%*@++++++*%@+#$$$####==--=#$$$$#=--==####$$$#++%*@++++++*%...",
"...%*@++++++*%@+#$$$$$$#==-;=#$$$$#=;-==#$$$$$$#++%*@++++++*%...",
"...%*@++++++*%@+#$$$$$$##$#$##$$$$##$#$##$$$$$$#++%*@++++++*%...",
"...%*@++++++*%@+#$$$$$##$$#$$$$$$$$$$#$$##$$$$$#+@%*@++++++*%...",
"...%*@++++++**%@#$$$$$$$$$#$$$$$$$$$$#$$$$$$$$$#@%**@++++++*%...",
"...%*@++++++*%*%#$$$$$$$$$$$$$$$$$$$$$$$$$$$$$$#%*%*@++++++*%...",
"...%*@+++++*%***#$$$$$$$$$$$$$$$$$$$$$$$$$$$$$$#***%*++++++*%...",
"...%*@+++++%*+++#$$$$$$>>>>$$#$$$$#$$$$$>>>>$$$#+++*%@+++++*%...",
"...%*@++++%+++++#$$$$$>>>>$$$##$$##$$$$>>>>$$$$#+++++%@++++*%...",
"...%*@+++%++++++#$$$$>>>>$$$$$####$$$$>>>>$$$$$#++++++%@+@@*%...",
"...%***@%+++++++#$$$$$$$$$$$$$$$$$$$$$$$$$$$$$$#+++++++%@***%...",
"...%***%@+++++++#$$$$$$$$$$$$$$$$$$$$$$$$$$$$$$#+++++++@%***%...",
"...%**%**@++++++#$$$$$$$$$$$$$$$$$$$$$$$$$$$$$$#+++++++**%**%...",
"...%*%***@@@@@@@#$$$$$$$$$$$$$$$$$$$$$$$$$$$$$$#@@@@@@@***%*%...",
"+...%***********#$$$$$$$$$$$$$$$$$$$$$$$$$$$$$$#***********%...@",
"@....%%%%%%%%%%%#,$$$$$$$$$$$$$$$$$$$$$$$$$$$$,#%%%%%%%%%%%....@",
".@+............##,$$$$$$$$$$$$$$$$$$$$$$$$$$$$,##............@+.",
".@@............#',,$$$$$$$$$$$$$$$$$$$$$$$$$$,,'#............@@.",
"+....%%%%%%%%%%#'',,$$$$$$$$$$$$$$$$$$$$$$$$,,''#%%%%%%%%%%....@",
"@...%**********#'',,,$$$$$$$$$$$$$$$$$$$$$$,,,''#**********%...@",
"...%*%***++++++#'',,,,$$$$$$$$$$$$$$$$$$$$,,,,''#++++++***%*%...",
"...%**%**++++++#'',,,,,$$$$$$$$$$$$$$$$$$,,,,,''#++++++**%**%...",
"...%***%+++++++#''',,,,,,,,,,,,,,,,,,,,,,,,,,'''#+++++++%***%...",
"...%***+%++++++#'''',,,,,,,'''''''''',,,,,,,''''#++++++%+***%...",
"...%*@+++%++++++#'''',,,,'''''''''''''',,,,''''#++++++%++++*%...",
"...%*@++++%+++++#''''''''''''######''''''''''''#+++++%+++++*%...",
"...%*@+++++%*+++##''''''''####%..%####''''''''##+++*%++++++*%...",
"...%*@+++++*%****#'''''''##++*%..%*@+##'''''''#****%*++++++*%...",
"...%*@++++++*%*%%%#######++++*%..%*@+++#######%%%*%*@++++++*%...",
"...%*@++++++**%++++%**@++++++*%..%*@++++++**%++++%**@++++++*%...",
"...%*@++++++*%@+++++%*@++++++*%..%*@++++++*%@+++++%*@++++++*%...",
"...%*@++++++*%@+++++%*@++++++*%..%*@++++++*%@+++++%*@++++++*%...",
"...%*@++++++*%@+++++%*@++++++*%..%*@++++++*%@+++++%*@++++++*%...",
"...%*@++++++*%@++++@%*@++++++*%..%*@++++++*%@++++@%*@++++++*%...",
"...%*@++++++**%@@@@%**@++++++*%..%*@++++++**%@@@@%**@++++++*%...",
"...%*@++++++*%*%%%%*%*@++++++*%..%*@++++++*%*%%%%*%*@++++++*%...",
"...%*@+++++*%********%*++++++*%..%*@+++++*%********%*++++++*%...",
"...%*@+++++%*++++++++*%@+++++*%..%*@+++++%*++++++++*%@+++++*%...",
"...%*@++++%++++++++++++%@++++*%..%*@++++%++++++++++++%@++++*%...",
"...%*@+++%++++++++++++++%@+@@*%..%*@+++%++++++++++++++%@+@@*%...",
"...%***@%++++++++++++++++%@***%..%***@%++++++++++++++++%@***%...",
"...%***%@++++++++++++++++@%***%..%***%@++++++++++++++++@%***%...",
"...%**%**@+++++++++++++++**%**%..%**%**@+++++++++++++++**%**%...",
"...%*%***@@@@@@@@@@@@@@@@***%*%..%*%***@@@@@@@@@@@@@@@@***%*%...",
"....%************************%....%************************%....",
"+....%%%%%%%%%%%%%%%%%%%%%%%%......%%%%%%%%%%%%%%%%%%%%%%%%....+",
"@+.............................@+.............................++",
".@+............................@@............................++.",
"..@+.........................@+..@+.........................@+.."};
