/* XPM */
static char * co_1_xpm[] = {
"64 64 11 1",
" 	c None",
".	c #2D2831",
"+	c #5E5067",
"@	c #695376",
"#	c #513F5C",
"$	c #574960",
"%	c #1AAB84",
"&	c #44C5A3",
"*	c #6FF0CE",
"=	c #9AFFE4",
"-	c #E5FDF7",
"..++.........................@@..@@.........................@+..",
".++............................@+............................@+.",
"++.............................@@.............................@+",
"@....########################......########################....@",
"....#$$$$$$$$$$$$$$$$$$$$$$$$#....#$$$$$$$$$$$$$$$$$$$$$$$$#....",
"...#$#$$$++++++++++++++++$$$#$#..#$#$$$++++++++++++++++$$$#$#...",
"...#$$#$$++++++++++++++++$$#$$#..#$$#$$++++++++++++++++$$#$$#...",
"...#$$$#++++++++++++++++++#$$$#..#$$$#++++++++++++++++++#$$$#...",
"...#$$$+#++++++++++++++++#+$$$#..#$$$+#++++++++++++++++#+$$$#...",
"...#$@+++#++++++++++++++#%%%%%%%.#$@+++#++++++++++++++#++++$#...",
"...#$@++++#++++++++++++#%%%%%&&%%#$@++++#++++++++++++#+++++$#...",
"...#$@+++++#$++++++++$#+++++%%&&&%$@+++++#$++++++++$#++++++$#...",
"...#$@+++++$#$$$$$$$$#$++++++%%&*&%%+++++$#$$$$$$$$#$++++++$#...",
"...#$@++++++$#$####$#$@++++++$%&&*&&%+++++$#$####$#$@++++++$#...",
"...#$@++++++$$#++++#$$@++++++$#%&**&%%++++$$#++++#$$@++++++$#...",
"...#$@++++++$#@+++++#$@++++++$#%&***&&%+++$#@+++++#$@++++++$#...",
"...#$@++++++$#@+++++#$@++++++$#%&&**&&%%++$#@+++++#$@++++++$#...",
"...#$@++++++$#@+++++#$@++++++$#%&&***&&&%+$#@+++++#$@++++++$#...",
"...#$@++++++$#@++++@#$@++++++$#%&&***&&&%%$#@++++@#$@++++++$#...",
"...#$@++++++$$#@@@@#$$@++++++$#%&&****&&&%$$#@@@@#$$@++++++$#...",
"...#$@++++++$#$####$#$@++++++$#%&&*****&&%$#$####$#$@++++++$#...",
"...#$@+++++$#$$$$$$$$#$++++++$#%&&*****&&&%$$$$$$$$#$++++++$#...",
"...#$@+++++#$++++++++$#@+++++$%&&*******&&&%+++++++$#@+++++$#...",
"...#$@++++#++++++++++++#@++++$%&&********&&%+++++++++#@++++$#...",
"...#$@+++#++++++++++++++#@+@@%&&*********&&%++++++++++#@+@@$#...",
"...#$$$@#++++++++++++++++#@$%&&***==*****&&%+++++++++++#@$$$#...",
"...#$$$#@++++++++++++++++@#$%&&**=====****&&%++++++++++@#$$$#...",
"...#$$#$$@+++++++++++++++$%%&&*=======****&&%++++++++++$$#$$#...",
"...#$#$$$@@@@@@@@@@@@@@@%%&&**=========***&&%@@@@@@@@@@$$$#$#...",
"+...#$$$$$$$$$$$$$$$$$$%%&&**==========***&&%$$$$$$$$$$$$$$#...@",
"@....################%%&&&**===========***&&%##############....@",
".@+..................%&&&&**===========***&&%................@+.",
".@@.................%&&&***=======-====***&&%................@@.",
"+....##############%%&****=-===========***&%###############....@",
"@...#$$$$$$$$$$$$$$%&&****====-=-==-==-***&%$$$$$$$$$$$$$$$#...@",
"...#$#$$$++++++++++%&&***======-=====-=***&%+++++++++++$$$#$#...",
"...#$$#$$++++++++++%&&***=====-=-=-===-***&%+++++++++++$$#$$#...",
"...#$$$#+++++++++++%&&**===-===------=***&&%++++++++++++#$$$#...",
"...#$$$+#++++++++++%&&**====-=------=-***&&%+++++++++++#+$$$#...",
"...#$@+++#+++++++++%&&**==-==--------=***&%+++++++++++#++++$#...",
"...#$@++++#++++++++%&&***===-=------=-***&%++++++++++#+++++$#...",
"...#$@+++++#$++++++%&&&**-=-=--------*-*&&%++++++++$#++++++$#...",
"...#$@+++++$#$$$$$$$%&&***==-------=--**&%#$$$$$$$$#$++++++$#...",
"...#$@++++++$#$####$%&&&*-*-=-=---=--*-*&%$#$####$#$@++++++$#...",
"...#$@++++++$$#++++#$%&&&***-=-=-=-**-*&%+$$#++++#$$@++++++$#...",
"...#$@++++++$#@+++++#$%&&&***====-****&%++$#@+++++#$@++++++$#...",
"...#$@++++++$#@+++++#$%%&&&***-******&%%++$#@+++++#$@++++++$#...",
"...#$@++++++$#@+++++#$@+%&&&&&***&&&&%++++$#@+++++#$@++++++$#...",
"...#$@++++++$#@++++@#$@++%%&&&&&&&&%%+++++$#@++++@#$@++++++$#...",
"...#$@++++++$$#@@@@#$$@++++%%%%%%%%@++++++$$#@@@@#$$@++++++$#...",
"...#$@++++++$#$####$#$@++++++$#..#$@++++++$#$####$#$@++++++$#...",
"...#$@+++++$#$$$$$$$$#$++++++$#..#$@+++++$#$$$$$$$$#$++++++$#...",
"...#$@+++++#$++++++++$#@+++++$#..#$@+++++#$++++++++$#@+++++$#...",
"...#$@++++#++++++++++++#@++++$#..#$@++++#++++++++++++#@++++$#...",
"...#$@+++#++++++++++++++#@+@@$#..#$@+++#++++++++++++++#@+@@$#...",
"...#$$$@#++++++++++++++++#@$$$#..#$$$@#++++++++++++++++#@$$$#...",
"...#$$$#@++++++++++++++++@#$$$#..#$$$#@++++++++++++++++@#$$$#...",
"...#$$#$$@+++++++++++++++$$#$$#..#$$#$$@+++++++++++++++$$#$$#...",
"...#$#$$$@@@@@@@@@@@@@@@@$$$#$#..#$#$$$@@@@@@@@@@@@@@@@$$$#$#...",
"....#$$$$$$$$$$$$$$$$$$$$$$$$#....#$$$$$$$$$$$$$$$$$$$$$$$$#....",
"+....########################......########################....+",
"@+.............................@+.............................++",
".@+............................@@............................++.",
"..@+.........................@+..@+.........................@+.."};
