/* XPM */
static char * exit_1_xpm[] = {
"64 64 19 1",
" 	c None",
".	c #2D2831",
"+	c #5E5067",
"@	c #695376",
"#	c #513F5C",
"$	c #574960",
"%	c #513A31",
"&	c #564037",
"*	c #453129",
"=	c #362721",
"-	c #BD8B5D",
";	c #AB7B4F",
">	c #9A714B",
",	c #7C5C4F",
"'	c #8E8885",
")	c #6F6764",
"!	c #5E5957",
"~	c #9A9593",
"{	c #D6CFCC",
"..++.........................@@..@@.........................@+..",
".++............................@+............................@+.",
"++.............................@@.............................@+",
"@....########################......########################....@",
"....#$$$$$$$$$$$$$$$$$$$$$$$$#....#$$$$$$$$$$$$$$$$$$$$$$$$#....",
"...#$#$$$++++++++++++++++++++$#..#$++++++++++++++++++++$$$#$#...",
"...#$$#$$++++++++++++++++++++$#..#$++++++++++++++++++++$$#$$#...",
"...#$$$#@++++++++++++++++++++$#..#$++++++++++++++++++++@#$$$#...",
"...#$@$+#@+++++++++++++++++++$#..#$+++++++++++++++++++@#+$@$#...",
"...#$@+++#@++++++++++++++++++$#..#$++++++++++++++++++@#+++@$#...",
"...#$@++++#@+++++++++++++++++$#..#$+++++++++++++++++@#++++@$#...",
"...#$@+++++#@+++@@@@@@@@@@@@@#....#@@@@@@@@@@@@@+++@#+++++@$#...",
"...#$@+++++$#$$$#############......#############$$$#$+++++@$#...",
"...#$@++++++$#$#................................#$#$++++++@$#...",
"...#$@++++++$$#..%%%%%%%%%%%&&&&&&&&&&&&&&%%%%%..#$$++++++@$#...",
"...#$@++++++$#..*******************************%..#$++++++@$#...",
"...#$@++++++#..=********************************%..#++++++@$#...",
"...#$@++++++#.==**===-;-;==;>;>==>-;>==>>;>===***%.#++++++@$#...",
"...#$@++++++#.==*=>**-;-;**;>;>**>-;;**>-;>**;=**%.#++++++@$#...",
"...#$@++++++#.==*;-**->->**;;>;**>-;>**->-;**>>**%.#++++++@$#...",
"...#$@++++++#.==*>-**-->-**;->-**>--;**->;;**;>**%.#++++++@$#...",
"...#$@++++++#.==*>-**;-;-**;->-**;;->**>-;-**>>**%.#++++++@$#...",
"...#$@++++++#.==*>;**;->-**;-;-**;;-;**>-;-**->**%.#++++++@$#...",
"...#$@++++++#.==*>-**;---**;-;-**;>--**>;;-**->**%.#++++++@$#...",
"...#$@++++++#.==*>-%%;---%%;-;-%%-;--%%>;;>%%->**%.#++++++@$#...",
"...#$@++++++#.==*--%%;-;>%%;-;-%%-;--%%;;;>%%->**%.#++++++@$#...",
"...#$@++++++#.==*-;,,;-;>,,;;->,,>-;-,,;-;>,,;-**%.#++++++@$#...",
"...#$@@++++@#.==*-;,,;>->,,>;-;,,>-;-,,;-;>,,>-**%.#@++++@@$#...",
"...#$@@@@@@@#.==*-;%%>;->%%>;-;%%>-;>%%>;->%%;>**%.#@@@@@@@$#...",
"+...#$$$$$$#..==*>-%%;>->%%;;-;%%>-;>%%;;->%%;>**%..#$$$$$$#...@",
"@....######...==*>-%%>>->%%;;-;%%>>->%%>;;-%%;>**%...######....@",
".@+...........==*>-%%;>-;%%;;->%%;>->%%;-;-%%;>**%...........@+.",
".@@...........==*>-**>>-;**;;->**->-;**>->-**>-**%...........@@.",
"+....######...==*>-**;>-;**>;>>**->-;**;->;**--**%...######....@",
"@...#$$$$$$#..==*>-**>>;-**>-;>**>--;**;->;**-;**%..#$$$$$$#...@",
"...#$@++++++#.==*>-**>;;-**;-;>**;--;**;--;**-;**%.#++++++@$#...",
"...#$@++++++#.==*>-**>;>-**>>->**;-->**;;-;**>;**%.#++++++@$#...",
"...#$@++++++#.==*>;**>;;-**;;-;**;-->**-;-;**>;**%.#++++++@$#...",
"...#$@++++++#.==*;;**-;>>**;>;-**>;->**;---**-;**%.#++++++@$#...",
"...#$@++++++#.==*-;**-;>>**>>>-**-;--**;---**-;**%.#++++++@$#...",
"...#$@++++++#.==*--**-;>****************;--**-;**%.#++++++@$#...",
"...#$@++++++#.==*--**-;******************-;**;-**%.#++++++@$#...",
"...#$@++++++#.==*-;**>***'''')))))!!~{~***-**;-**%.#++++++@$#...",
"...#$@++++++#.==*-;**>**''%%%%,,,,,,%%~!**-**;-**%.#++++++@$#...",
"...#$@++++++#.==*-;**>**'=*==========*%!**>**;>**%.#++++++@$#...",
"...#$@++++++#.==**;**>**'==))))!!~{{~==)**>**;***%.#++++++@$#...",
"...#$@++++++#.==***==>**')))))!!~{{~!!))**>==****%.#++++++@$#...",
"...#$@++++++#..==********************************..#++++++@$#...",
"...#$@++++++$#..================================..#$++++++@$#...",
"...#$@++++++$$#..==============================..#$$++++++@$#...",
"...#$@++++++@#$#................................#$#@++++++@$#...",
"...#$@+++++@#$$$#############......#############$$$#@+++++@$#...",
"...#$@++++@#$++++++++++++++++#....#++++++++++++++++$#@++++@$#...",
"...#$@+++@#++++++++++++++++++$#..#$++++++++++++++++++#@+++@$#...",
"...#$@@+@#+++++++++++++++++++$#..#$+++++++++++++++++++#@+@@$#...",
"...#$$$@#++++++++++++++++++++$#..#$++++++++++++++++++++#@$$$#...",
"...#$$$#@++++++++++++++++++++$#..#$++++++++++++++++++++@#$$$#...",
"...#$$#$$@++++++++++++++++++@$#..#$@++++++++++++++++++@$$#$$#...",
"...#$#$$$@@@@@@@@@@@@@@@@@@@@$#..#$@@@@@@@@@@@@@@@@@@@@$$$#$#...",
"....#$$$$$$$$$$$$$$$$$$$$$$$$#....#$$$$$$$$$$$$$$$$$$$$$$$$#....",
"+....########################......########################....+",
"@+.............................@+.............................++",
".@+............................@@............................++.",
"..@+.........................@+..@+.........................@+.."};
