/* XPM */
static char * exit_1_xpm[] = {
"64 64 15 1",
" 	c None",
".	c #2D2831",
"+	c #5E5067",
"@	c #695376",
"#	c #513F5C",
"$	c #60D0B3",
"%	c #574960",
"&	c #44BB9C",
"*	c #9AE7D2",
"=	c #C9F4E8",
"-	c #33AC8C",
";	c #513A31",
">	c #564037",
",	c #453129",
"'	c #362721",
"..++.........................@@..@@.........................@+..",
".++............................@+............................@+.",
"++.............................@@.............................@+",
"@....####$###################......################$#######....@",
"....#%%%%%%%%%%%%%%%%%%%%%%%%#....#%%%%%%%%%%%%%%%%%%%%%%%%#....",
"...#%#%%%+++++++++++++++++++$%#..#%++++++++++++++++++++%%%#%#...",
"...#%%#%%++++++++++++++++++++%#..#%++++++++++++++++++++%%#%%#...",
"...#%%%#@++++++++++++++++++++%#..#%++++++$+++++++++++++@#%%%#...",
"...#%@%+#@++++++++&++++++++++%*==**+++++++++++++++++++@#+%@%#...",
"...#%@+++#@++++++&&++++++++++==..$$*++++++++&++++++++@&+++@%#...",
"...#%@++++#@+++++++++++++++++%#..#$$++++++++&&++++++@#&&++@%#...",
"...#%@+++++#@+++@@@@@@@&&@@@@#....#@@@@@@@@@@@@@+++@#+++++@%#...",
"...#%@+++++%#%%%#############......#############%%%#%+++++@%#...",
"...#$@++++++%#%#............---..............==.#%#%++++++@%#...",
"...#%@++++++%%#..*;;;;;**;;;>-------*>>>>>;;;;==.#%%++++++@%#...",
"...#%@++++&+%#..==,,,,,,,***,,***---**---,,,*,,;*$#%++++++@%#...",
"...#%@+++&&+#..*=,,$$$,----**,,--**---*--*-,,*,,*$$#++++++@%#...",
"...#%@++++++#.'=,,$$==-$-----*-----**$-*-*--**,,,*$#++++++@%#$..",
"...#%@++++++#.'',$===---=---*-*---==*-$-*-*--**,,$$#++++++@%#...",
"...#%@$+++++#.'',==$-===-------***-=**--$*-*--*,,;.#+++&++@%#...",
"...#%@++++++$$'',=$-==*--*--=====**-===$-***-$*,,;.#++&&++@%#...",
"...#%@++++++*$''==-==*----==*****----*==$-$-*$*,,;.#++++++@%#...",
"...#%@+++++$*.''====*--$=$---------$$-*==*-$***,,;.#++++++@%#...",
"...#%@+++++$*.''=*=*--*==--------------*=$*$*-*,,;.#++++++@%#...",
"...#%@+++++==.'==*---*$=-$$-----$$$--$*-*=$$$-*,-;.#++++++@%#...",
"...#%@+++++=#.'==---*$=*-$---====**$==$--*$$-$*,-;.#++++++@%#...",
"...#%@+++++=#.'=,---*$=-$--$==**=***$=$--**$-$*,-;.#++++++@%#...",
"...#%@@++++@#.==,---$=*-$-$==-----=-$-=*-$*$*=---;.#@++++&@%#...",
"...#%@&&@@@@#.='-*--$=-*$-$=-$$==$-=*-$=-$-$*=*--;.#@@@@@&&%#...",
"+...#%%&%%%#..='-&---=-*$-$-$=====$-*-$=-$-*$-=--;..#%*%%%%#...@",
"@....######...-'-$*$-=-*$--*$=*--=$=--*=-$-*$-=--;...#=####....@",
".@+...........-'-**$-=-*$--*$=*-==*=--*=-*$-$-=--;....*=.....@+.",
".@@...........-'-*-$-=-*$*-*$===***$--*$-*$-$$=-,;....*=.....@@.",
"+....######...-'-*-$-=*-$*-$$$*===*$$-$$-*$-$$=-,;...#*=###....@",
"@...#%%%%%%#..''-*--*-=-$$--$$$$$$$$$$$-**=-$-=-,;..#%=%%%%#.$.@",
"...#%@++++++#.''-*--==*=-$*--*****$$*-*-**=-$*=-,;.#+*=*++@%#...",
"...#%@++++++#.''***-=*-=-$$*--**$$$--**-*=$-$==-,=.#+*=$++@%#...",
"...#%@+++&++#.''**&-=$--=-$==$-------*-**=*--$-,,=.#+==$++@%#...",
"...#%@++&&++#.''**&-=$$-=-*$-===$*=*--**=$*--$-,=;.#+**$++@%#...",
"...#%@++++++#.'*-*$&-=$$-=-*$$*-==*--**=$$=*-*-,=;.#==$*++@%#...",
"...#%@++++++#.'**=$$&-=$$**-*$$$$$$$$===$-=*-*$=,;.#=*$*++@%#...",
"...#%@++++$$#.'***=$$&-==$$*---***-==*---=--*-$=*;.#=$$+++@%#...",
"...#%@+++$$$#.'**-*=$$&--*$$$$*-------*--=--*$=**;.#*$*+++@%#...",
"...#%@+++**$#.'**$-==$$&**---$$$$***----=***$$=*,;.#+*++++&&#...",
"...#%@++++*$#.'**$-*==*$$$***--------===$--$$$**,;.#++++++&%#...",
"...#%@++++*=*.''*,$-*==$$$$$$*******=$*--$-$$**,,;.#++++++@%#...",
"...#%@+++++==.''**,$--***$$$***$-==$*--$$-$$**,,,;.#++++++@%#...",
"...#%@++++++#=.''*,$$,-,=*,,$$$,=,,---$-,$$$*,,,,..#&&++++@%#...",
"...#&@++++++%#..'''''''---****'''''''''''$''''''..#%+&++++@%#...",
"...#&@++++++%%#..'''''''''----***---'''''''''''..#%%++++++@%#...",
"...#%@+++++&&#%#...........................==**.#%#@++++++@%#$..",
"...#%@+++++@&%%%#############......###======####%%%#@+++++@%#...",
"...#%@++++@#%++++++++++++++++#$$****==****+++++++++%#@++++@%#...",
"...#%@+++@#++++++++++++++++++%#$$$$$$$*++++++++++++++#@+++@%#...",
"...#%@@+@#++++++++++++++++&&+%#..#%+++++++++++++++++++#@+@@%#...",
"...#%%%@#++++++++++++++++++++%#..#%+++++++++++&&+++++++#@%%%#...",
"...#%%%#@++++++++++++++++++++%#..#%+++++++++++&++++++++@#%%%#...",
"...#%%#%%@++++++++++++++++++@%#..#%@++++++++++++++++++@%$#%%#...",
"...#%#%%%@@@@@@&&@@@@@@@@@@@@%#..#&&@@@@@@@@@@@@@@@@@@@%%%#%#...",
"....#%%%%%%%%%%%&%%%%%%%%%$%%#....&%%%%%%%%%%%%%%%%%%%%%%%%#....",
"+....#$######################......########################....+",
"@+.............................@+.............................++",
".@+............................@@............................++.",
"..@+.........................@+..@+.........................@+.."};
