/* XPM */
static char * wall_c_xpm[] = {
"64 64 6 1",
" 	c None",
".	c #7B808D",
"+	c #484D5A",
"@	c #646B7C",
"#	c #848A9A",
"$	c #3F424B",
"..++++++++@@..++++@@..+++@@@@@@@@+++++@@@@.+++++@@@@@++++++++++@",
"@++@@@@@+++@@.+@@+++@@@..+@@@@++++@@@++@@+++@@@++@@++@@@......+@",
"+@@.......++++@....@+++@@.+++++@@.....++++@.....@+++@..........+",
"+.........@+++...@@.@@@++++++@@@..@@@@.@+@.@@@@@.@++....@@@@@@@+",
"+.@@@@@@@@..@+.@@@@@.......+@....@@@@@@@+@.@@@@@@@++..@@@@@@@@@+",
"+.@@@@@@@@@@@+@@@@@@@@@@...+..@@@@@@@@@@+@.@@@@@@@++.@@@@@@@@@@+",
"+@@@@@@@@@@@@+@@@@@@@@@@@@.+@@@@@@@@@@@@+@@@@@@@@@++@@@@@@@@@+++",
"+@@@@@@@@@@@@+@@@@@@@@@@@@@+++++++++++##++@@++++++#+@@@@@@@@+...",
"+@@@@@@@@@@@++@@@@@@@@@@@@+$$$$$$$$$$$$$#++#$$##$#$++@@@@@@@+@@.",
"+@@@@@@@@@@+++@@@@@@@@@@@++$$$$$$$$$$$$$#$$$#$$#$#$$#+@@@@@@+@@@",
"@++@@@@@@@++$+++++++++++++$$$$$$$$$$$$$$#$$$#$$####$#+++@@@@+@@@",
"@++++++++++$$$$$$$$$$$$$$$$$$$$$$$$$$$$$#$$$#########$$++++++++@",
"@@+@@@@@+$$$$$$$$$$$$$$$$$$$$$$$$$$$$$$$#$###$$$$$$$#$$$$$++@@+@",
"++@.....@+$$$$$$$$$$$$$$$$$$$$$$$$$$$$$#########$$$#######+@..@+",
"+@.......+$$$$$$$$$$$$$$$$$$$$$$$$$$$$#$$$$##$$$#$$#$$$$$+@.@..+",
"+..@@@@..+$$$$$$$$$$$$$$$$$$$$$$$$$$$$$$$$$$$#$$$##$$$$$$+..@@.+",
"+@@@@@@@.@+$$$$$$$$$$$$$$$$$$$$$$$$$$$$$$$$$$#$$$##$$$$$$+@@@@.+",
"+@@@@@@@@@+$$$$$$$$$$$$$$$$$$$$$$$$$$$$$$$$$$$#$$########+@@@@@+",
"++@@@@@@@+$$$$$$$$$$$$$$$$$$$$$$$$$$$$$$$$$$$$#$#$$$$$$$$+@@@@@+",
".+@@@@@@@+$$$$$$$$$$$$$$$$$$$$$$$$$$$$$$$$$$$$##$$$$$$$$$++@@@@+",
"..+@@@@@++$$$$$$$$$$$$$$$$$$$$$$$$$$$$$$$$$$$$##########$+++++++",
"@.+@@@@@+$$$$$$$$$$$$$$$$$$$$$$$$$$$$$$$$$$$$$#$#$$$$$$++++..@+@",
"@@+@@@@++$$$$$$$$$$$$$$$$$$$$$$$$$$$$$$$$$$$$$##$$$$$$+@......+@",
"@@++@@++$$$$$$$$$$$$$$$$$$$$$$$$$$$$$$$$$$$$###$$$$$$$+@.@@...+@",
"@@++++$$$$$$$$$$$$$$$$$$$$$$$$$$$$$$$$$$$$$$#$$$$$$$$$+.@@@@@@.+",
"@@+@@++$$$$$$$$$$$$$$$$$$$$$$$$$$$$$$$$$$$$$$$$$$$$$$$+.@@@@@@@+",
"++@..+$$$$$$$$$$$$$$$$$$$$$$$$$$$$$$$$$$$$$$$$$$$$$$$$+.@@@@@@@+",
"+....+$$$$$$$$$$$$$$$$$$$$$$$$$$$$$$$$$$$$$$$$$$$$$$$$+@@@@@@@@+",
"+@@@.+$$$$$$$$$$$$$$$$$$$$$$$$$$$$$$$$$$$$$$$$$$$$$$$$+@@@@@@@@+",
"+@@@.+$$$$$$$$$$$$$$$$$$$$$$$$$$$$$$$$$$$$$$$$$$$$$$$$+@@@@@@@++",
"+@@@@+$$$$$$$$$$$$$$$$$$$$$$$$$$$$$$$$$$$$$$$$$$$$$$$$+@@@@@@@++",
"+@@@@+$$$$$$$$$$$$$$$$$$$$$$$$$$$$$$$$$$$$$$$$$$$$$$$$+@@@@@@@++",
"++@@@+$$$$$$$$$$$$$$$$$$$$$$$$$$$$$$$$$$$$$$$$$$$$$$$$+++++++++.",
".+@@++$$$$$$$$$$$$$$$$$$$$$$$$$$$$$$$$$$$$$$$$$$$$$$$$$$+++@..+@",
".++++$$$$$$$$$$$$$$$$$$$$$$$$$$$$$$$$$$$$$$$$$$$$$$$$$$$$++...+@",
"@++++$$$$$$$$$$$$$$$$$$$$$$$$$$$$$$$$$$$$$$$$$$$$$$$$$$$$$+.@@+@",
"@+@@@+$$$$$$$$$$$$$$$$$$$$$$$$$$$$$$$$$$$$$$$$$$$$$$$$$$$$+@@@++",
"++...@++$$$$$$$$$$$$$$$$$$$$$$$$$$$$$$$$$$$$$$$$$$$$$$$$$$+@@@@+",
"++....@+$$$$$$$$$$$$$$$$$$$$$$$$$$$$$$$$$$$$$$$$$$$$$$$$$$+@@@@+",
"+..@...+$$$$$$$$$$$$$$$$$$$$$$$$$$$$$$$$$$$$$$$$$$$$$$$$$$+@@@@+",
"+@.@@@.+$$$$$$$$$$$$$$$$$$$$$$$$$$$$$$$$$$$$$$$$$$$$$$$$$$$+@@++",
"+@@@@@.+$$$$$$$$$$$$$$$$$$$$$$$$$$$$$$$$$$$$$$$$$$$$$$$$$$$+++@@",
"+@@@@@.+$$$$$$$$$$$$$$$$$$$$$$$$$$$$$$$$$$$$$$$$$$$$$$$$$$++++@@",
"+@@@@@@+$$$$$$$$$$$$$$$$$$$$$$$$$$$$$$$$$$$$$$$$$$$$$$$$$+@@@+@@",
"+@@@@@+$$$$$$$$$$$$$$$$$$$$$$$$$$$$$$$$$$$$$$$$$$$$$$$$$+@..@@++",
"+@@@@@+$$$$$$$$$$$$$$$$$$$$$$$$$$$$$$$$$$$$$$$$$$$$$$$$$+....@++",
"+@@@@++#$$$$$$$$$$$$$$$$$$$$$$$$$$$$$$$$$$$$$$$$$$$$$$$$+.@@..@+",
"+@@@@+$$#$$$$$$$$$$$$$$$$$$$$$$$$$$$$$$$$$$$$$$$$$$$$$$$+@@@@..+",
"++@@@+$$$###$$$$$$$$$$$$$$$$$$$$$$$$$$$$$$$$$$$$$$$$$$$$+@@@@..+",
".++@+$#$$###$$$$$$$$$$$$$$$$$$$$$$$$$$$$$$$$$$$$$$$$$$$$+@@@@..+",
"@.++$$$###$#$$$$$$$$$$$$$$$$$$$$$$$$$$$$$$$$$$$$$$$$$$$$+@@@@@.+",
"@++@++$$#$$#$$$$$$$$$$$$$$$$$$$$$$$$$$$$$$$$$$$$$$$$$$$$+@@@@@@+",
"+@...@+#$$$$#$$$$$$$$$$$$$$$$$$$$$$$$$$$$$$$$$$$$$$$$$$$+@@@@@@+",
"+.....+$$$$$#$$$$$$$$$$$$$$$$$$$$$$$$$$$$$$$$$$$$$$$$$$$+@@@@@@+",
"+@@...+$$$$$##$$$$$$$$$$$$$$$$$$$$$$$$$$$$$$$$$$$$$$$$$$+@@@@@@+",
"+@@@..+$$$$$$###$$$$$$+++++++++$$$$$$$$$$$$$$$$$$$$$$$$+@@@@@@@+",
"+@@@@.+######$##$$$+++@@@...@@@++$$$$$$$$$$$$$$$$$$$$$$+@@@@@@@+",
"+@@@@..+$$$$$$$$##$+@@........@@+$$$$$$$$$$$$$$$$$$$$$$++@@@++++",
"+@@@@@.+++++++++$#$+.....@@@@..@++++$$$$++++++++$$$$$$$+++++++++",
"+@@@@@.++@.....@+#++..@@@@@@@@..+..+++++.......++$$$$$++.....@++",
"+@@@@@.@+@@......@@+@@@@@@@@@@@@+...+....@@@@@..+++$$+@@.@@@@.@+",
"++@@@@@.++@@@@@....+@@@@@@@@@@@@+@@.+@@@@@@@@@@@..++++@.@@@@@.++",
".+@@@@@++++++@@@@@.++@@@@@++++++++@@++++++@@@@@@@+++.++.@@@@@++.",
".++++++++@..+++@@@@.+++++++@@.....++++....++++++++@@@.++++++++@@"};
